# xmcd
#
# Track frame offsets: 
#        150
#        19638
#        41446
#        59735
#        73005
#        108709
#        129689
#        148819
#        177656
#        194161
#        213444
#        234466
#        244156
#        261613
#
# Disc length: 3681 seconds
#
# Revision: 0
# Processed by: cddbd v1.5.2PL0 Copyright (c) Steve Scherf et al.
# Submitted via: ExactAudioCopy v0.99pb4
#
DISCID=ea0e5f0e
DTITLE=Ronnie Earl And The Broadcasters - Surrounded By Love
DYEAR=2008
DGENRE=Blues
TTITLE0=One Of These Mornings
TTITLE1=Akos
TTITLE2=Mr. Downchild
TTITLE3=Off The Hook
TTITLE4=That's When My Soul Comes Down
TTITLE5=Blind Love
TTITLE6=Improvisation On Annie's Boogie
TTITLE7=Jelly, Jelly
TTITLE8=Kathy's Theme
TTITLE9=Surrounded By Love
TTITLE10=Georgia
TTITLE11=Blues For Robert Jr.
TTITLE12=Night Flight (bonus)
TTITLE13=West Side Soul (bonus)
EXTD=
EXTT0=
EXTT1=
EXTT2=
EXTT3=
EXTT4=
EXTT5=
EXTT6=
EXTT7=
EXTT8=
EXTT9=
EXTT10=
EXTT11=
EXTT12=
EXTT13=
PLAYORDER=
